<svg xmlns="http://www.w3.org/2000/svg" xmlns:xlink="http://www.w3.org/1999/xlink" width="500" zoomAndPan="magnify" viewBox="0 0 375 374.999991" height="500" preserveAspectRatio="xMidYMid meet" version="1.0"><defs><g/><clipPath id="90aaea7005"><path d="M 124.902344 53.292969 L 172 53.292969 L 172 186 L 124.902344 186 Z M 124.902344 53.292969 " clip-rule="nonzero"/></clipPath><clipPath id="7a88d7a3d3"><path d="M 178 79 L 226 79 L 226 210.792969 L 178 210.792969 Z M 178 79 " clip-rule="nonzero"/></clipPath><clipPath id="44a477d9ef"><path d="M 241 58 L 250.152344 58 L 250.152344 67 L 241 67 Z M 241 58 " clip-rule="nonzero"/></clipPath></defs><g clip-path="url(#90aaea7005)"><path fill="#000000" d="M 124.949219 127.515625 L 124.949219 111.039062 C 128.289062 110.855469 130.804688 110.351562 132.5 109.527344 C 134.191406 108.703125 135.660156 107.320312 136.894531 105.375 C 138.128906 103.429688 138.976562 100.992188 139.433594 98.0625 C 139.800781 95.863281 139.984375 92.042969 139.984375 86.59375 C 139.984375 77.714844 140.394531 71.523438 141.21875 68.023438 C 142.042969 64.523438 143.53125 61.707031 145.683594 59.578125 C 147.832031 57.449219 150.96875 55.769531 155.089844 54.53125 C 157.878906 53.707031 162.273438 53.296875 168.269531 53.296875 L 171.910156 53.296875 L 171.910156 69.707031 C 166.828125 69.707031 163.566406 69.992188 162.125 70.5625 C 160.683594 71.136719 159.621094 72.003906 158.933594 73.171875 C 158.246094 74.339844 157.90625 76.34375 157.90625 79.179688 C 157.90625 82.0625 157.699219 87.535156 157.285156 95.589844 C 157.054688 100.121094 156.460938 103.792969 155.5 106.609375 C 154.539062 109.425781 153.3125 111.746094 151.828125 113.578125 C 150.339844 115.410156 148.0625 117.308594 144.996094 119.277344 C 147.695312 120.832031 149.90625 122.652344 151.621094 124.734375 C 153.339844 126.820312 154.652344 129.347656 155.570312 132.324219 C 156.484375 135.296875 157.078125 139.28125 157.355469 144.269531 C 157.675781 151.867188 157.835938 156.71875 157.835938 158.824219 C 157.835938 161.84375 158.199219 163.949219 158.933594 165.140625 C 159.664062 166.332031 160.777344 167.234375 162.261719 167.851562 C 163.75 168.46875 166.964844 168.78125 171.910156 168.78125 L 171.910156 185.257812 L 168.269531 185.257812 C 162.089844 185.257812 157.355469 184.765625 154.058594 183.78125 C 150.761719 182.796875 147.984375 181.160156 145.71875 178.871094 C 143.453125 176.582031 141.929688 173.757812 141.152344 170.390625 C 140.371094 167.027344 139.984375 161.730469 139.984375 154.5 C 139.984375 146.078125 139.617188 140.605469 138.886719 138.089844 C 137.878906 134.425781 136.355469 131.808594 134.320312 130.226562 C 132.28125 128.648438 129.160156 127.746094 124.949219 127.515625 " fill-opacity="1" fill-rule="nonzero"/></g><path fill="#0063f2" d="M 229.109375 87.480469 L 218.363281 87.480469 L 218.363281 76.734375 L 229.109375 76.734375 L 229.109375 87.480469 " fill-opacity="1" fill-rule="nonzero"/><path fill="#0063f2" d="M 226.574219 108.972656 L 218.363281 108.972656 L 218.363281 100.761719 L 226.574219 100.761719 L 226.574219 108.972656 " fill-opacity="1" fill-rule="nonzero"/><g clip-path="url(#7a88d7a3d3)"><path fill="#0063f2" d="M 195.308594 95.691406 L 195.308594 87.480469 L 203.519531 87.480469 L 203.519531 95.691406 Z M 216.195312 134.078125 C 214.136719 132.496094 212.601562 129.878906 211.59375 126.21875 C 211.042969 124.148438 210.710938 120.191406 210.605469 114.347656 L 203.519531 114.347656 L 203.519531 103.597656 L 210.449219 103.597656 C 210.277344 99.453125 209.914062 96.226562 209.363281 93.914062 C 208.5625 90.546875 207.039062 87.710938 204.796875 85.398438 C 202.554688 83.089844 199.785156 81.449219 196.488281 80.488281 C 193.195312 79.527344 188.457031 79.046875 182.277344 79.046875 L 178.640625 79.046875 L 178.640625 95.457031 C 183.8125 95.457031 187.140625 95.765625 188.628906 96.382812 C 190.117188 97.003906 191.144531 97.882812 191.71875 99.027344 C 192.289062 100.171875 192.597656 102.460938 192.644531 105.894531 C 192.875 116.785156 193.238281 123.835938 193.742188 127.039062 C 194.519531 131.710938 195.984375 135.554688 198.136719 138.574219 C 199.691406 140.679688 202.164062 142.832031 205.554688 145.027344 C 202.945312 146.539062 200.804688 148.289062 199.132812 150.28125 C 197.460938 152.273438 196.125 154.699219 195.117188 157.558594 C 194.109375 160.417969 193.492188 164.230469 193.261719 168.988281 C 192.894531 176.863281 192.703125 182.195312 192.679688 184.988281 C 192.65625 187.777344 192.289062 189.757812 191.582031 190.925781 C 190.871094 192.09375 189.761719 192.988281 188.25 193.605469 C 186.742188 194.222656 183.535156 194.53125 178.640625 194.53125 L 178.640625 211.007812 L 182.277344 211.007812 C 188.273438 211.007812 192.667969 210.597656 195.460938 209.773438 C 199.625 208.535156 202.78125 206.855469 204.9375 204.726562 C 207.085938 202.597656 208.5625 199.773438 209.363281 196.246094 C 210.164062 192.722656 210.566406 186.519531 210.566406 177.640625 C 210.566406 172.242188 210.746094 168.441406 211.113281 166.242188 C 211.617188 163.316406 212.476562 160.878906 213.6875 158.933594 C 214.902344 156.988281 216.355469 155.601562 218.050781 154.777344 C 219.742188 153.953125 222.261719 153.449219 225.601562 153.269531 L 225.601562 136.789062 C 221.390625 136.5625 218.253906 135.65625 216.195312 134.078125 " fill-opacity="1" fill-rule="nonzero"/></g><g clip-path="url(#44a477d9ef)"><path fill="#0063f2" d="M 250.0625 66.609375 L 241.851562 66.609375 L 241.851562 58.398438 L 250.0625 58.398438 L 250.0625 66.609375 " fill-opacity="1" fill-rule="nonzero"/></g><path fill="#0063f2" d="M 208.894531 76.734375 L 193.566406 76.734375 L 193.566406 61.40625 L 208.894531 61.40625 L 208.894531 76.734375 " fill-opacity="1" fill-rule="nonzero"/><g fill="#000000" fill-opacity="1"><g transform="translate(10.375217, 289.238595)"><g><path d="M 0 -29.125 L 9.046875 -29.125 L 15.0625 -13.546875 L 21.078125 -29.125 L 29.8125 -29.125 L 17.21875 0.765625 L 12.40625 0.765625 Z M 0 -29.125 "/></g></g></g><g fill="#000000" fill-opacity="1"><g transform="translate(52.035424, 289.238595)"><g><path d="M 17.53125 0.890625 C 15.34375 0.890625 13.296875 0.488281 11.390625 -0.3125 C 9.492188 -1.113281 7.835938 -2.210938 6.421875 -3.609375 C 5.015625 -5.003906 3.910156 -6.640625 3.109375 -8.515625 C 2.304688 -10.390625 1.90625 -12.40625 1.90625 -14.5625 C 1.90625 -16.71875 2.304688 -18.734375 3.109375 -20.609375 C 3.910156 -22.484375 5.015625 -24.117188 6.421875 -25.515625 C 7.835938 -26.910156 9.492188 -28.007812 11.390625 -28.8125 C 13.296875 -29.613281 15.34375 -30.015625 17.53125 -30.015625 C 19.726562 -30.015625 21.773438 -29.613281 23.671875 -28.8125 C 25.578125 -28.007812 27.234375 -26.910156 28.640625 -25.515625 C 30.054688 -24.117188 31.164062 -22.484375 31.96875 -20.609375 C 32.769531 -18.734375 33.171875 -16.71875 33.171875 -14.5625 C 33.171875 -12.40625 32.769531 -10.390625 31.96875 -8.515625 C 31.164062 -6.640625 30.054688 -5.003906 28.640625 -3.609375 C 27.234375 -2.210938 25.578125 -1.113281 23.671875 -0.3125 C 21.773438 0.488281 19.726562 0.890625 17.53125 0.890625 Z M 17.53125 -7.15625 C 19.601562 -7.15625 21.28125 -7.835938 22.5625 -9.203125 C 23.851562 -10.578125 24.5 -12.382812 24.5 -14.625 C 24.5 -16.78125 23.851562 -18.539062 22.5625 -19.90625 C 21.28125 -21.28125 19.601562 -21.96875 17.53125 -21.96875 C 15.46875 -21.96875 13.789062 -21.28125 12.5 -19.90625 C 11.21875 -18.539062 10.578125 -16.78125 10.578125 -14.625 C 10.578125 -12.382812 11.21875 -10.578125 12.5 -9.203125 C 13.789062 -7.835938 15.46875 -7.15625 17.53125 -7.15625 Z M 17.53125 -7.15625 "/></g></g></g><g fill="#000000" fill-opacity="1"><g transform="translate(98.950546, 289.238595)"><g><path d="M 3.609375 -29.125 L 12.09375 -29.125 L 12.09375 0 L 3.609375 0 Z M 7.84375 -33.625 C 6.457031 -33.625 5.273438 -34.109375 4.296875 -35.078125 C 3.328125 -36.046875 2.84375 -37.226562 2.84375 -38.625 C 2.84375 -39.96875 3.328125 -41.125 4.296875 -42.09375 C 5.273438 -43.070312 6.457031 -43.5625 7.84375 -43.5625 C 9.238281 -43.5625 10.410156 -43.070312 11.359375 -42.09375 C 12.316406 -41.125 12.796875 -39.96875 12.796875 -38.625 C 12.796875 -37.226562 12.316406 -36.046875 11.359375 -35.078125 C 10.410156 -34.109375 9.238281 -33.625 7.84375 -33.625 Z M 7.84375 -33.625 "/></g></g></g><g fill="#000000" fill-opacity="1"><g transform="translate(126.428814, 289.238595)"><g><path d="M 17.734375 0.890625 C 15.492188 0.890625 13.410156 0.5 11.484375 -0.28125 C 9.566406 -1.0625 7.890625 -2.148438 6.453125 -3.546875 C 5.023438 -4.941406 3.910156 -6.578125 3.109375 -8.453125 C 2.304688 -10.328125 1.90625 -12.34375 1.90625 -14.5 C 1.90625 -16.695312 2.304688 -18.734375 3.109375 -20.609375 C 3.910156 -22.484375 5.023438 -24.117188 6.453125 -25.515625 C 7.890625 -26.910156 9.578125 -28.007812 11.515625 -28.8125 C 13.460938 -29.613281 15.554688 -30.015625 17.796875 -30.015625 C 20.328125 -30.015625 22.6875 -29.492188 24.875 -28.453125 C 27.070312 -27.421875 28.929688 -25.957031 30.453125 -24.0625 L 24.5625 -18.421875 C 22.75 -20.785156 20.492188 -21.96875 17.796875 -21.96875 C 15.640625 -21.96875 13.894531 -21.28125 12.5625 -19.90625 C 11.238281 -18.539062 10.578125 -16.78125 10.578125 -14.625 C 10.578125 -12.382812 11.25 -10.578125 12.59375 -9.203125 C 13.945312 -7.835938 15.703125 -7.15625 17.859375 -7.15625 C 20.597656 -7.15625 22.9375 -8.378906 24.875 -10.828125 L 30.765625 -5.125 C 29.242188 -3.269531 27.351562 -1.800781 25.09375 -0.71875 C 22.84375 0.351562 20.390625 0.890625 17.734375 0.890625 Z M 17.734375 0.890625 "/></g></g></g><g fill="#000000" fill-opacity="1"><g transform="translate(170.304948, 289.238595)"><g><path d="M 17.59375 0.890625 C 15.28125 0.890625 13.160156 0.507812 11.234375 -0.25 C 9.316406 -1.007812 7.660156 -2.0625 6.265625 -3.40625 C 4.867188 -4.757812 3.789062 -6.375 3.03125 -8.25 C 2.28125 -10.132812 1.90625 -12.195312 1.90625 -14.4375 C 1.90625 -16.675781 2.28125 -18.742188 3.03125 -20.640625 C 3.789062 -22.535156 4.847656 -24.179688 6.203125 -25.578125 C 7.554688 -26.972656 9.160156 -28.0625 11.015625 -28.84375 C 12.867188 -29.625 14.894531 -30.015625 17.09375 -30.015625 C 19.164062 -30.015625 21.078125 -29.664062 22.828125 -28.96875 C 24.578125 -28.269531 26.101562 -27.285156 27.40625 -26.015625 C 28.71875 -24.753906 29.742188 -23.257812 30.484375 -21.53125 C 31.222656 -19.800781 31.59375 -17.898438 31.59375 -15.828125 C 31.59375 -15.066406 31.570312 -14.429688 31.53125 -13.921875 C 31.488281 -13.421875 31.40625 -12.8125 31.28125 -12.09375 L 10.703125 -12.09375 C 11.117188 -10.320312 11.992188 -8.925781 13.328125 -7.90625 C 14.660156 -6.894531 16.359375 -6.390625 18.421875 -6.390625 C 19.898438 -6.390625 21.289062 -6.664062 22.59375 -7.21875 C 23.90625 -7.769531 25.132812 -8.65625 26.28125 -9.875 L 30.765625 -4.875 C 29.117188 -2.976562 27.15625 -1.539062 24.875 -0.5625 C 22.601562 0.40625 20.175781 0.890625 17.59375 0.890625 Z M 23.171875 -17.984375 C 22.796875 -19.753906 22.066406 -21.101562 20.984375 -22.03125 C 19.910156 -22.957031 18.570312 -23.421875 16.96875 -23.421875 C 15.320312 -23.421875 13.9375 -22.9375 12.8125 -21.96875 C 11.695312 -21 10.953125 -19.671875 10.578125 -17.984375 Z M 23.171875 -17.984375 "/></g></g></g><g fill="#000000" fill-opacity="1"><g transform="translate(215.637252, 289.238595)"><g><path d="M 3.484375 -44.953125 L 11.96875 -44.953125 L 11.96875 0 L 3.484375 0 Z M 3.484375 -44.953125 "/></g></g></g><g fill="#000000" fill-opacity="1"><g transform="translate(242.925577, 289.238595)"><g><path d="M 11.65625 0.890625 C 10.175781 0.890625 8.820312 0.65625 7.59375 0.1875 C 6.375 -0.269531 5.320312 -0.910156 4.4375 -1.734375 C 3.550781 -2.554688 2.851562 -3.523438 2.34375 -4.640625 C 1.832031 -5.765625 1.578125 -6.984375 1.578125 -8.296875 C 1.578125 -9.691406 1.863281 -10.988281 2.4375 -12.1875 C 3.007812 -13.382812 3.820312 -14.425781 4.875 -15.3125 C 5.925781 -16.207031 7.160156 -16.894531 8.578125 -17.375 C 9.992188 -17.863281 11.566406 -18.109375 13.296875 -18.109375 C 15.992188 -18.109375 18.421875 -17.515625 20.578125 -16.328125 L 20.578125 -16.90625 C 20.578125 -18.632812 20.003906 -20.015625 18.859375 -21.046875 C 17.722656 -22.085938 16.269531 -22.609375 14.5 -22.609375 C 12.050781 -22.609375 10.046875 -21.570312 8.484375 -19.5 L 3.421875 -25.390625 C 5.191406 -26.992188 7.046875 -28.164062 8.984375 -28.90625 C 10.929688 -29.644531 13.109375 -30.015625 15.515625 -30.015625 C 17.535156 -30.015625 19.367188 -29.6875 21.015625 -29.03125 C 22.660156 -28.375 24.082031 -27.460938 25.28125 -26.296875 C 26.488281 -25.140625 27.421875 -23.757812 28.078125 -22.15625 C 28.734375 -20.550781 29.0625 -18.78125 29.0625 -16.84375 L 29.0625 0 L 20.578125 0 L 20.578125 -2.96875 C 19.347656 -1.582031 18.015625 -0.59375 16.578125 0 C 15.148438 0.59375 13.507812 0.890625 11.65625 0.890625 Z M 14.375 -5.515625 C 16.019531 -5.515625 17.410156 -5.96875 18.546875 -6.875 C 19.691406 -7.78125 20.367188 -8.972656 20.578125 -10.453125 C 18.640625 -11.710938 16.695312 -12.34375 14.75 -12.34375 C 13.269531 -12.34375 12.117188 -12.023438 11.296875 -11.390625 C 10.472656 -10.765625 10.0625 -9.921875 10.0625 -8.859375 C 10.0625 -7.804688 10.441406 -6.984375 11.203125 -6.390625 C 11.960938 -5.804688 13.019531 -5.515625 14.375 -5.515625 Z M 14.375 -5.515625 "/></g></g></g><g fill="#000000" fill-opacity="1"><g transform="translate(286.99163, 289.238595)"><g><path d="M 20.578125 0.890625 C 18.804688 0.890625 17.148438 0.5625 15.609375 -0.09375 C 14.066406 -0.75 12.75 -1.664062 11.65625 -2.84375 L 11.65625 0 L 3.484375 0 L 3.484375 -44.953125 L 11.96875 -44.953125 L 11.96875 -26.34375 C 13.0625 -27.4375 14.347656 -28.320312 15.828125 -29 C 17.304688 -29.675781 18.953125 -30.015625 20.765625 -30.015625 C 22.703125 -30.015625 24.515625 -29.625 26.203125 -28.84375 C 27.898438 -28.0625 29.378906 -26.972656 30.640625 -25.578125 C 31.910156 -24.179688 32.898438 -22.546875 33.609375 -20.671875 C 34.328125 -18.796875 34.6875 -16.757812 34.6875 -14.5625 C 34.6875 -12.40625 34.328125 -10.390625 33.609375 -8.515625 C 32.898438 -6.640625 31.910156 -5.003906 30.640625 -3.609375 C 29.378906 -2.210938 27.878906 -1.113281 26.140625 -0.3125 C 24.410156 0.488281 22.554688 0.890625 20.578125 0.890625 Z M 18.859375 -6.84375 C 19.878906 -6.84375 20.84375 -7.039062 21.75 -7.4375 C 22.65625 -7.84375 23.4375 -8.390625 24.09375 -9.078125 C 24.75 -9.773438 25.265625 -10.585938 25.640625 -11.515625 C 26.023438 -12.453125 26.21875 -13.46875 26.21875 -14.5625 C 26.21875 -15.65625 26.023438 -16.664062 25.640625 -17.59375 C 25.265625 -18.53125 24.75 -19.34375 24.09375 -20.03125 C 23.4375 -20.726562 22.65625 -21.273438 21.75 -21.671875 C 20.84375 -22.078125 19.878906 -22.28125 18.859375 -22.28125 C 17.804688 -22.28125 16.835938 -22.078125 15.953125 -21.671875 C 15.066406 -21.273438 14.304688 -20.726562 13.671875 -20.03125 C 13.035156 -19.34375 12.539062 -18.53125 12.1875 -17.59375 C 11.832031 -16.664062 11.65625 -15.65625 11.65625 -14.5625 C 11.65625 -13.46875 11.832031 -12.453125 12.1875 -11.515625 C 12.539062 -10.585938 13.035156 -9.773438 13.671875 -9.078125 C 14.304688 -8.390625 15.066406 -7.84375 15.953125 -7.4375 C 16.835938 -7.039062 17.804688 -6.84375 18.859375 -6.84375 Z M 18.859375 -6.84375 "/></g></g></g><g fill="#000000" fill-opacity="1"><g transform="translate(335.426229, 289.238595)"><g><path d="M 14.5625 0.890625 C 11.863281 0.890625 9.332031 0.445312 6.96875 -0.4375 C 4.601562 -1.320312 2.597656 -2.613281 0.953125 -4.3125 L 5.578125 -10.125 C 7.046875 -8.738281 8.570312 -7.6875 10.15625 -6.96875 C 11.738281 -6.25 13.3125 -5.890625 14.875 -5.890625 C 16.101562 -5.890625 17.039062 -6.078125 17.6875 -6.453125 C 18.34375 -6.835938 18.671875 -7.390625 18.671875 -8.109375 C 18.671875 -8.828125 18.238281 -9.40625 17.375 -9.84375 C 16.507812 -10.289062 14.984375 -10.742188 12.796875 -11.203125 C 6.078125 -12.722656 2.71875 -15.828125 2.71875 -20.515625 C 2.71875 -21.910156 3.003906 -23.195312 3.578125 -24.375 C 4.148438 -25.550781 4.960938 -26.550781 6.015625 -27.375 C 7.066406 -28.207031 8.332031 -28.851562 9.8125 -29.3125 C 11.289062 -29.78125 12.9375 -30.015625 14.75 -30.015625 C 17.03125 -30.015625 19.234375 -29.644531 21.359375 -28.90625 C 23.492188 -28.164062 25.40625 -27.054688 27.09375 -25.578125 L 22.796875 -19.6875 C 21.273438 -21 19.847656 -21.914062 18.515625 -22.4375 C 17.191406 -22.96875 15.875 -23.234375 14.5625 -23.234375 C 12.40625 -23.234375 11.328125 -22.601562 11.328125 -21.34375 C 11.328125 -20.664062 11.738281 -20.113281 12.5625 -19.6875 C 13.382812 -19.269531 14.894531 -18.804688 17.09375 -18.296875 C 20.59375 -17.453125 23.164062 -16.238281 24.8125 -14.65625 C 26.457031 -13.070312 27.28125 -11.097656 27.28125 -8.734375 C 27.28125 -7.253906 26.972656 -5.921875 26.359375 -4.734375 C 25.753906 -3.554688 24.898438 -2.554688 23.796875 -1.734375 C 22.703125 -0.910156 21.363281 -0.269531 19.78125 0.1875 C 18.195312 0.65625 16.457031 0.890625 14.5625 0.890625 Z M 14.5625 0.890625 "/></g></g></g></svg>