<svg xmlns="http://www.w3.org/2000/svg" xmlns:xlink="http://www.w3.org/1999/xlink" width="500" zoomAndPan="magnify" viewBox="0 0 375 374.999991" height="500" preserveAspectRatio="xMidYMid meet" version="1.0"><defs><g/><clipPath id="3ebcffe68c"><path d="M 114.128906 28.277344 L 179 28.277344 L 179 210 L 114.128906 210 Z M 114.128906 28.277344 " clip-rule="nonzero"/></clipPath><clipPath id="245c98dd1b"><path d="M 187 63 L 253 63 L 253 245.027344 L 187 245.027344 Z M 187 63 " clip-rule="nonzero"/></clipPath><clipPath id="e5d5cadba0"><path d="M 274 35 L 285.878906 35 L 285.878906 47 L 274 47 Z M 274 35 " clip-rule="nonzero"/></clipPath></defs><g clip-path="url(#3ebcffe68c)"><path fill="#000000" d="M 114.179688 130.328125 L 114.179688 107.671875 C 118.769531 107.421875 122.230469 106.730469 124.5625 105.59375 C 126.886719 104.460938 128.902344 102.5625 130.601562 99.886719 C 132.300781 97.210938 133.464844 93.859375 134.09375 89.832031 C 134.597656 86.8125 134.851562 81.554688 134.851562 74.066406 C 134.851562 61.859375 135.417969 53.347656 136.550781 48.53125 C 137.683594 43.71875 139.726562 39.847656 142.683594 36.921875 C 145.640625 33.996094 149.953125 31.683594 155.617188 29.984375 C 159.457031 28.851562 165.496094 28.285156 173.742188 28.285156 L 178.746094 28.285156 L 178.746094 50.847656 C 171.757812 50.847656 167.273438 51.242188 165.292969 52.027344 C 163.3125 52.8125 161.847656 54.007812 160.902344 55.613281 C 159.960938 57.214844 159.488281 59.972656 159.488281 63.871094 C 159.488281 67.835938 159.203125 75.359375 158.636719 86.433594 C 158.324219 92.664062 157.503906 97.714844 156.183594 101.582031 C 154.863281 105.453125 153.175781 108.648438 151.132812 111.164062 C 149.089844 113.683594 145.957031 116.292969 141.742188 119 C 145.453125 121.140625 148.488281 123.640625 150.851562 126.503906 C 153.210938 129.367188 155.019531 132.84375 156.277344 136.9375 C 157.535156 141.027344 158.355469 146.503906 158.730469 153.359375 C 159.171875 163.808594 159.390625 170.476562 159.390625 173.371094 C 159.390625 177.523438 159.894531 180.417969 160.902344 182.058594 C 161.910156 183.691406 163.4375 184.9375 165.480469 185.785156 C 167.523438 186.632812 171.949219 187.058594 178.746094 187.058594 L 178.746094 209.714844 L 173.742188 209.714844 C 165.246094 209.714844 158.730469 209.035156 154.199219 207.683594 C 149.667969 206.332031 145.847656 204.082031 142.734375 200.9375 C 139.617188 197.789062 137.523438 193.902344 136.453125 189.277344 C 135.382812 184.652344 134.851562 177.367188 134.851562 167.425781 C 134.851562 155.847656 134.347656 148.324219 133.339844 144.863281 C 131.953125 139.832031 129.863281 136.226562 127.0625 134.054688 C 124.261719 131.886719 119.964844 130.644531 114.179688 130.328125 " fill-opacity="1" fill-rule="nonzero"/></g><path fill="#3b5aff" d="M 257.386719 75.285156 L 242.613281 75.285156 L 242.613281 60.507812 L 257.386719 60.507812 L 257.386719 75.285156 " fill-opacity="1" fill-rule="nonzero"/><path fill="#3b5aff" d="M 253.898438 104.832031 L 242.613281 104.832031 L 242.613281 93.542969 L 253.898438 93.542969 L 253.898438 104.832031 " fill-opacity="1" fill-rule="nonzero"/><g clip-path="url(#245c98dd1b)"><path fill="#3b5aff" d="M 210.917969 86.574219 L 210.917969 75.285156 L 222.207031 75.285156 L 222.207031 86.574219 Z M 239.628906 139.347656 C 236.796875 137.175781 234.691406 133.574219 233.304688 128.542969 C 232.546875 125.699219 232.089844 120.257812 231.945312 112.21875 L 222.207031 112.21875 L 222.207031 97.445312 L 231.730469 97.445312 C 231.492188 91.746094 230.996094 87.308594 230.238281 84.128906 C 229.136719 79.5 227.042969 75.601562 223.960938 72.421875 C 220.878906 69.246094 217.070312 66.992188 212.539062 65.671875 C 208.007812 64.351562 201.496094 63.691406 193 63.691406 L 187.996094 63.691406 L 187.996094 86.25 C 195.105469 86.25 199.683594 86.675781 201.730469 87.523438 C 203.773438 88.375 205.191406 89.585938 205.980469 91.160156 C 206.765625 92.734375 207.1875 95.878906 207.253906 100.597656 C 207.566406 115.574219 208.070312 125.269531 208.761719 129.671875 C 209.832031 136.09375 211.84375 141.378906 214.804688 145.53125 C 216.941406 148.425781 220.339844 151.386719 225 154.40625 C 221.410156 156.480469 218.46875 158.886719 216.171875 161.625 C 213.875 164.363281 212.035156 167.699219 210.652344 171.632812 C 209.265625 175.566406 208.417969 180.804688 208.101562 187.347656 C 207.597656 198.175781 207.332031 205.503906 207.300781 209.34375 C 207.265625 213.179688 206.765625 215.902344 205.789062 217.507812 C 204.8125 219.113281 203.289062 220.339844 201.210938 221.191406 C 199.132812 222.039062 194.726562 222.464844 187.996094 222.464844 L 187.996094 245.121094 L 193 245.121094 C 201.242188 245.121094 207.285156 244.554688 211.121094 243.421875 C 216.847656 241.722656 221.191406 239.410156 224.152344 236.484375 C 227.105469 233.554688 229.136719 229.667969 230.238281 224.824219 C 231.339844 219.976562 231.890625 211.453125 231.890625 199.242188 C 231.890625 191.816406 232.140625 186.59375 232.644531 183.574219 C 233.335938 179.546875 234.515625 176.195312 236.183594 173.519531 C 237.851562 170.847656 239.851562 168.941406 242.179688 167.808594 C 244.503906 166.675781 247.96875 165.984375 252.5625 165.734375 L 252.5625 143.078125 C 246.769531 142.761719 242.460938 141.519531 239.628906 139.347656 " fill-opacity="1" fill-rule="nonzero"/></g><g clip-path="url(#e5d5cadba0)"><path fill="#3b5aff" d="M 286.195312 46.589844 L 274.90625 46.589844 L 274.90625 35.300781 L 286.195312 35.300781 L 286.195312 46.589844 " fill-opacity="1" fill-rule="nonzero"/></g><path fill="#3b5aff" d="M 229.59375 60.507812 L 208.519531 60.507812 L 208.519531 39.4375 L 229.59375 39.4375 L 229.59375 60.507812 " fill-opacity="1" fill-rule="nonzero"/><g fill="#000000" fill-opacity="1"><g transform="translate(3.231746, 310.793411)"><g><path d="M 0 -30.296875 L 9.421875 -30.296875 L 15.671875 -14.09375 L 21.9375 -30.296875 L 31.015625 -30.296875 L 17.90625 0.796875 L 12.90625 0.796875 Z M 0 -30.296875 "/></g></g></g><g fill="#000000" fill-opacity="1"><g transform="translate(46.570803, 310.793411)"><g><path d="M 18.25 0.921875 C 15.957031 0.921875 13.820312 0.503906 11.84375 -0.328125 C 9.875 -1.160156 8.15625 -2.300781 6.6875 -3.75 C 5.21875 -5.195312 4.0625 -6.894531 3.21875 -8.84375 C 2.382812 -10.800781 1.96875 -12.898438 1.96875 -15.140625 C 1.96875 -17.378906 2.382812 -19.476562 3.21875 -21.4375 C 4.0625 -23.394531 5.21875 -25.097656 6.6875 -26.546875 C 8.15625 -27.992188 9.875 -29.132812 11.84375 -29.96875 C 13.820312 -30.800781 15.957031 -31.21875 18.25 -31.21875 C 20.53125 -31.21875 22.65625 -30.800781 24.625 -29.96875 C 26.601562 -29.132812 28.328125 -27.992188 29.796875 -26.546875 C 31.265625 -25.097656 32.414062 -23.394531 33.25 -21.4375 C 34.09375 -19.476562 34.515625 -17.378906 34.515625 -15.140625 C 34.515625 -12.898438 34.09375 -10.800781 33.25 -8.84375 C 32.414062 -6.894531 31.265625 -5.195312 29.796875 -3.75 C 28.328125 -2.300781 26.601562 -1.160156 24.625 -0.328125 C 22.65625 0.503906 20.53125 0.921875 18.25 0.921875 Z M 18.25 -7.4375 C 20.394531 -7.4375 22.132812 -8.148438 23.46875 -9.578125 C 24.8125 -11.003906 25.484375 -12.882812 25.484375 -15.21875 C 25.484375 -17.457031 24.8125 -19.289062 23.46875 -20.71875 C 22.132812 -22.144531 20.394531 -22.859375 18.25 -22.859375 C 16.09375 -22.859375 14.34375 -22.144531 13 -20.71875 C 11.664062 -19.289062 11 -17.457031 11 -15.21875 C 11 -12.882812 11.664062 -11.003906 13 -9.578125 C 14.34375 -8.148438 16.09375 -7.4375 18.25 -7.4375 Z M 18.25 -7.4375 "/></g></g></g><g fill="#000000" fill-opacity="1"><g transform="translate(95.376642, 310.793411)"><g><path d="M 3.75 -30.296875 L 12.578125 -30.296875 L 12.578125 0 L 3.75 0 Z M 8.171875 -34.96875 C 6.722656 -34.96875 5.492188 -35.472656 4.484375 -36.484375 C 3.472656 -37.492188 2.96875 -38.722656 2.96875 -40.171875 C 2.96875 -41.578125 3.472656 -42.785156 4.484375 -43.796875 C 5.492188 -44.804688 6.722656 -45.3125 8.171875 -45.3125 C 9.617188 -45.3125 10.832031 -44.804688 11.8125 -43.796875 C 12.800781 -42.785156 13.296875 -41.578125 13.296875 -40.171875 C 13.296875 -38.722656 12.800781 -37.492188 11.8125 -36.484375 C 10.832031 -35.472656 9.617188 -34.96875 8.171875 -34.96875 Z M 8.171875 -34.96875 "/></g></g></g><g fill="#000000" fill-opacity="1"><g transform="translate(123.961957, 310.793411)"><g><path d="M 18.4375 0.921875 C 16.113281 0.921875 13.953125 0.515625 11.953125 -0.296875 C 9.953125 -1.109375 8.207031 -2.238281 6.71875 -3.6875 C 5.226562 -5.132812 4.0625 -6.832031 3.21875 -8.78125 C 2.382812 -10.738281 1.96875 -12.835938 1.96875 -15.078125 C 1.96875 -17.359375 2.382812 -19.476562 3.21875 -21.4375 C 4.0625 -23.394531 5.226562 -25.097656 6.71875 -26.546875 C 8.207031 -27.992188 9.960938 -29.132812 11.984375 -29.96875 C 14.003906 -30.800781 16.175781 -31.21875 18.5 -31.21875 C 21.132812 -31.21875 23.59375 -30.675781 25.875 -29.59375 C 28.164062 -28.519531 30.097656 -27 31.671875 -25.03125 L 25.546875 -19.171875 C 23.660156 -21.628906 21.3125 -22.859375 18.5 -22.859375 C 16.257812 -22.859375 14.445312 -22.144531 13.0625 -20.71875 C 11.6875 -19.289062 11 -17.457031 11 -15.21875 C 11 -12.882812 11.703125 -11.003906 13.109375 -9.578125 C 14.515625 -8.148438 16.335938 -7.4375 18.578125 -7.4375 C 21.429688 -7.4375 23.863281 -8.710938 25.875 -11.265625 L 32 -5.328125 C 30.425781 -3.398438 28.460938 -1.875 26.109375 -0.75 C 23.765625 0.363281 21.207031 0.921875 18.4375 0.921875 Z M 18.4375 0.921875 "/></g></g></g><g fill="#000000" fill-opacity="1"><g transform="translate(169.606288, 310.793411)"><g><path d="M 18.3125 0.921875 C 15.894531 0.921875 13.6875 0.523438 11.6875 -0.265625 C 9.6875 -1.054688 7.960938 -2.148438 6.515625 -3.546875 C 5.066406 -4.953125 3.945312 -6.632812 3.15625 -8.59375 C 2.363281 -10.550781 1.96875 -12.691406 1.96875 -15.015625 C 1.96875 -17.335938 2.363281 -19.488281 3.15625 -21.46875 C 3.945312 -23.445312 5.046875 -25.160156 6.453125 -26.609375 C 7.859375 -28.054688 9.523438 -29.1875 11.453125 -30 C 13.390625 -30.8125 15.5 -31.21875 17.78125 -31.21875 C 19.9375 -31.21875 21.921875 -30.851562 23.734375 -30.125 C 25.554688 -29.40625 27.148438 -28.382812 28.515625 -27.0625 C 29.878906 -25.75 30.941406 -24.191406 31.703125 -22.390625 C 32.472656 -20.585938 32.859375 -18.613281 32.859375 -16.46875 C 32.859375 -15.675781 32.835938 -15.015625 32.796875 -14.484375 C 32.753906 -13.960938 32.664062 -13.328125 32.53125 -12.578125 L 11.125 -12.578125 C 11.5625 -10.734375 12.472656 -9.285156 13.859375 -8.234375 C 15.242188 -7.179688 17.015625 -6.65625 19.171875 -6.65625 C 20.703125 -6.65625 22.144531 -6.9375 23.5 -7.5 C 24.863281 -8.070312 26.140625 -9 27.328125 -10.28125 L 32 -5.078125 C 30.289062 -3.097656 28.25 -1.601562 25.875 -0.59375 C 23.507812 0.414062 20.988281 0.921875 18.3125 0.921875 Z M 24.109375 -18.703125 C 23.710938 -20.546875 22.953125 -21.953125 21.828125 -22.921875 C 20.710938 -23.890625 19.320312 -24.375 17.65625 -24.375 C 15.9375 -24.375 14.492188 -23.867188 13.328125 -22.859375 C 12.171875 -21.847656 11.394531 -20.460938 11 -18.703125 Z M 24.109375 -18.703125 "/></g></g></g><g fill="#000000" fill-opacity="1"><g transform="translate(216.765493, 310.793411)"><g><path d="M 3.625 -46.765625 L 12.453125 -46.765625 L 12.453125 0 L 3.625 0 Z M 3.625 -46.765625 "/></g></g></g><g fill="#000000" fill-opacity="1"><g transform="translate(245.153218, 310.793411)"><g><path d="M 12.125 0.921875 C 10.582031 0.921875 9.175781 0.675781 7.90625 0.1875 C 6.632812 -0.289062 5.535156 -0.957031 4.609375 -1.8125 C 3.691406 -2.664062 2.96875 -3.671875 2.4375 -4.828125 C 1.90625 -5.992188 1.640625 -7.257812 1.640625 -8.625 C 1.640625 -10.070312 1.9375 -11.421875 2.53125 -12.671875 C 3.125 -13.929688 3.96875 -15.019531 5.0625 -15.9375 C 6.164062 -16.863281 7.453125 -17.578125 8.921875 -18.078125 C 10.390625 -18.578125 12.023438 -18.828125 13.828125 -18.828125 C 16.640625 -18.828125 19.164062 -18.210938 21.40625 -16.984375 L 21.40625 -17.578125 C 21.40625 -19.378906 20.8125 -20.816406 19.625 -21.890625 C 18.4375 -22.972656 16.921875 -23.515625 15.078125 -23.515625 C 12.535156 -23.515625 10.453125 -22.4375 8.828125 -20.28125 L 3.5625 -26.40625 C 5.40625 -28.070312 7.332031 -29.289062 9.34375 -30.0625 C 11.363281 -30.832031 13.628906 -31.21875 16.140625 -31.21875 C 18.242188 -31.21875 20.148438 -30.875 21.859375 -30.1875 C 23.578125 -29.507812 25.0625 -28.566406 26.3125 -27.359375 C 27.5625 -26.148438 28.523438 -24.710938 29.203125 -23.046875 C 29.890625 -21.378906 30.234375 -19.535156 30.234375 -17.515625 L 30.234375 0 L 21.40625 0 L 21.40625 -3.09375 C 20.132812 -1.644531 18.75 -0.613281 17.25 0 C 15.757812 0.613281 14.050781 0.921875 12.125 0.921875 Z M 14.953125 -5.734375 C 16.660156 -5.734375 18.109375 -6.203125 19.296875 -7.140625 C 20.484375 -8.085938 21.1875 -9.328125 21.40625 -10.859375 C 19.382812 -12.179688 17.363281 -12.84375 15.34375 -12.84375 C 13.8125 -12.84375 12.613281 -12.507812 11.75 -11.84375 C 10.894531 -11.1875 10.46875 -10.3125 10.46875 -9.21875 C 10.46875 -8.125 10.863281 -7.269531 11.65625 -6.65625 C 12.445312 -6.039062 13.546875 -5.734375 14.953125 -5.734375 Z M 14.953125 -5.734375 "/></g></g></g><g fill="#000000" fill-opacity="1"><g transform="translate(290.99514, 310.793411)"><g><path d="M 21.40625 0.921875 C 19.5625 0.921875 17.835938 0.582031 16.234375 -0.09375 C 14.628906 -0.78125 13.257812 -1.738281 12.125 -2.96875 L 12.125 0 L 3.625 0 L 3.625 -46.765625 L 12.453125 -46.765625 L 12.453125 -27.390625 C 13.585938 -28.535156 14.921875 -29.457031 16.453125 -30.15625 C 17.992188 -30.863281 19.710938 -31.21875 21.609375 -31.21875 C 23.617188 -31.21875 25.503906 -30.8125 27.265625 -30 C 29.023438 -29.1875 30.5625 -28.054688 31.875 -26.609375 C 33.195312 -25.160156 34.226562 -23.457031 34.96875 -21.5 C 35.71875 -19.550781 36.09375 -17.429688 36.09375 -15.140625 C 36.09375 -12.898438 35.71875 -10.800781 34.96875 -8.84375 C 34.226562 -6.894531 33.195312 -5.195312 31.875 -3.75 C 30.5625 -2.300781 29.003906 -1.160156 27.203125 -0.328125 C 25.398438 0.503906 23.46875 0.921875 21.40625 0.921875 Z M 19.625 -7.109375 C 20.675781 -7.109375 21.671875 -7.316406 22.609375 -7.734375 C 23.554688 -8.148438 24.367188 -8.71875 25.046875 -9.4375 C 25.734375 -10.164062 26.273438 -11.015625 26.671875 -11.984375 C 27.066406 -12.953125 27.265625 -14.003906 27.265625 -15.140625 C 27.265625 -16.285156 27.066406 -17.335938 26.671875 -18.296875 C 26.273438 -19.265625 25.734375 -20.113281 25.046875 -20.84375 C 24.367188 -21.570312 23.554688 -22.144531 22.609375 -22.5625 C 21.671875 -22.976562 20.675781 -23.1875 19.625 -23.1875 C 18.53125 -23.1875 17.519531 -22.976562 16.59375 -22.5625 C 15.675781 -22.144531 14.882812 -21.570312 14.21875 -20.84375 C 13.5625 -20.113281 13.046875 -19.265625 12.671875 -18.296875 C 12.304688 -17.335938 12.125 -16.285156 12.125 -15.140625 C 12.125 -14.003906 12.304688 -12.953125 12.671875 -11.984375 C 13.046875 -11.015625 13.5625 -10.164062 14.21875 -9.4375 C 14.882812 -8.71875 15.675781 -8.148438 16.59375 -7.734375 C 17.519531 -7.316406 18.53125 -7.109375 19.625 -7.109375 Z M 19.625 -7.109375 "/></g></g></g><g fill="#000000" fill-opacity="1"><g transform="translate(341.381724, 310.793411)"><g><path d="M 15.140625 0.921875 C 12.335938 0.921875 9.707031 0.460938 7.25 -0.453125 C 4.789062 -1.378906 2.703125 -2.722656 0.984375 -4.484375 L 5.796875 -10.53125 C 7.328125 -9.082031 8.914062 -7.984375 10.5625 -7.234375 C 12.21875 -6.492188 13.859375 -6.125 15.484375 -6.125 C 16.753906 -6.125 17.726562 -6.320312 18.40625 -6.71875 C 19.082031 -7.113281 19.421875 -7.6875 19.421875 -8.4375 C 19.421875 -9.175781 18.972656 -9.773438 18.078125 -10.234375 C 17.179688 -10.703125 15.585938 -11.175781 13.296875 -11.65625 C 6.316406 -13.238281 2.828125 -16.46875 2.828125 -21.34375 C 2.828125 -22.789062 3.125 -24.128906 3.71875 -25.359375 C 4.3125 -26.585938 5.15625 -27.628906 6.25 -28.484375 C 7.351562 -29.335938 8.671875 -30.003906 10.203125 -30.484375 C 11.742188 -30.972656 13.457031 -31.21875 15.34375 -31.21875 C 17.71875 -31.21875 20.007812 -30.832031 22.21875 -30.0625 C 24.4375 -29.289062 26.425781 -28.140625 28.1875 -26.609375 L 23.703125 -20.484375 C 22.128906 -21.847656 20.648438 -22.800781 19.265625 -23.34375 C 17.878906 -23.894531 16.503906 -24.171875 15.140625 -24.171875 C 12.898438 -24.171875 11.78125 -23.507812 11.78125 -22.1875 C 11.78125 -21.488281 12.207031 -20.921875 13.0625 -20.484375 C 13.925781 -20.046875 15.5 -19.5625 17.78125 -19.03125 C 21.425781 -18.15625 24.101562 -16.894531 25.8125 -15.25 C 27.53125 -13.601562 28.390625 -11.550781 28.390625 -9.09375 C 28.390625 -7.550781 28.066406 -6.164062 27.421875 -4.9375 C 26.785156 -3.707031 25.894531 -2.664062 24.75 -1.8125 C 23.613281 -0.957031 22.222656 -0.289062 20.578125 0.1875 C 18.929688 0.675781 17.117188 0.921875 15.140625 0.921875 Z M 15.140625 0.921875 "/></g></g></g></svg>