<svg width="120" height="40" viewBox="0 0 120 40" fill="none" xmlns="http://www.w3.org/2000/svg">
  <path d="M 8.937 0 L 13.406 0 L 13.406 4.469 L 8.937 4.469 Z M 17.875 0 L 22.343 0 L 22.343 4.469 L 17.875 4.469 Z M 4.469 4.469 L 8.937 4.469 L 8.937 8.937 L 4.469 8.937 Z M 13.406 4.469 L 17.875 4.469 L 17.875 8.937 L 13.406 8.937 Z M 22.343 4.469 L 26.812 4.469 L 26.812 8.937 L 22.343 8.937 Z M 0 8.937 L 4.469 8.937 L 4.469 13.406 L 0 13.406 Z M 8.937 8.937 L 13.406 8.937 L 13.406 13.406 L 8.937 13.406 Z M 0 13.406 L 4.469 13.406 L 4.469 17.875 L 0 17.875 Z M 8.937 13.406 L 13.406 13.406 L 13.406 17.875 L 8.937 17.875 Z M 4.469 17.875 L 8.937 17.875 L 8.937 22.343 L 4.469 22.343 Z M 13.406 17.875 L 17.875 17.875 L 17.875 22.343 L 13.406 22.343 Z M 22.343 17.875 L 26.812 17.875 L 26.812 22.343 L 22.343 22.343 Z M 8.937 22.343 L 13.406 22.343 L 13.406 26.812 L 8.937 26.812 Z M 17.875 22.343 L 22.343 22.343 L 22.343 26.812 L 17.875 26.812 Z M 45.34 19.738 C 47.328 19.738 48.416 18.503 49.19 16.054 L 50.341 16.054 L 49.902 19.758 C 48.583 20.491 47.118 20.972 44.921 20.972 C 40.548 20.972 37.785 17.938 37.785 13.732 C 37.785 8.856 41.05 5.863 45.172 5.863 C 47.307 5.863 48.834 6.428 49.839 7.244 L 49.839 10.509 L 48.709 10.509 C 48.144 8.186 46.951 7.077 45.068 7.077 C 41.971 7.077 40.694 9.881 40.694 13.125 C 40.694 16.912 42.264 19.738 45.34 19.738 Z M 56.295 19.235 C 57.111 19.235 57.676 19.005 58.387 18.503 L 58.387 14.841 L 55.939 15.782 C 55.165 16.075 54.725 16.64 54.725 17.436 C 54.725 18.587 55.29 19.235 56.295 19.235 Z M 60.919 13.167 C 60.919 13.669 60.857 17.373 60.857 18.022 C 60.857 18.859 61.129 19.34 61.715 19.34 C 61.903 19.34 62.363 19.298 62.677 19.214 L 62.803 19.884 C 62.091 20.596 61.296 20.972 60.417 20.972 C 59.308 20.972 58.701 20.198 58.45 19.068 C 57.718 19.947 56.588 20.951 54.997 20.951 C 53.135 20.951 52.172 19.696 52.172 18.084 C 52.172 16.159 53.658 15.489 55.06 15.008 L 58.387 13.815 L 58.387 12.706 C 58.387 11.346 57.969 10.425 56.588 10.425 C 55.562 10.425 55.06 10.928 55.06 11.89 C 55.06 12.288 55.102 12.643 55.207 13.083 L 53.365 13.355 C 52.967 13.083 52.779 12.685 52.779 12.12 C 52.779 10.3 54.558 9.337 56.964 9.337 C 59.538 9.337 60.919 10.488 60.919 13.167 Z M 67.715 9.295 L 67.715 12.727 C 68.908 10.174 69.536 9.337 70.875 9.337 C 71.252 9.337 71.524 9.463 71.691 9.609 L 71.691 11.911 L 71.231 11.911 C 69.934 11.911 68.95 12.078 67.715 13.418 L 67.715 18.587 C 67.715 19.591 68.218 19.654 69.641 19.821 L 69.641 20.763 L 63.677 20.763 L 63.677 19.821 C 64.597 19.696 65.183 19.591 65.183 18.628 L 65.183 11.806 L 63.781 10.907 L 63.781 10.383 L 67.109 9.295 Z M 76.49 7.077 L 76.49 9.546 L 79.566 9.546 L 79.566 10.802 L 76.49 10.802 L 76.49 17.854 C 76.49 18.963 76.971 19.361 78.039 19.361 C 78.625 19.361 79.315 19.193 79.838 18.921 L 80.11 19.57 C 79.315 20.428 78.164 20.972 76.72 20.972 C 75.046 20.972 73.979 20.177 73.979 18.252 L 73.979 10.802 L 72.472 10.802 L 72.472 10.007 C 73.644 9.4 74.774 8.416 75.737 7.077 Z M 86.218 9.337 C 89.064 9.337 90.549 11.346 90.549 14.046 L 90.549 14.736 L 83.246 14.736 C 83.246 17.268 84.669 18.963 86.887 18.963 C 88.373 18.963 89.357 18.273 90.11 17.268 L 90.57 17.54 C 90.047 19.57 88.457 20.972 86.008 20.972 C 82.932 20.972 80.986 18.649 80.986 15.51 C 80.986 11.806 83.246 9.337 86.218 9.337 Z M 85.883 10.488 C 84.376 10.488 83.476 11.974 83.309 13.669 L 88.185 13.669 C 88.185 11.744 87.41 10.488 85.883 10.488 Z M 96.43 20.972 C 94.923 20.972 93.5 20.637 92.475 19.884 L 92.349 17.185 L 93.437 17.185 C 93.835 18.9 94.819 19.905 96.493 19.905 C 97.727 19.905 98.523 19.34 98.523 18.335 C 98.523 17.143 97.686 16.724 95.802 16.201 C 93.689 15.594 92.454 14.715 92.454 12.727 C 92.454 10.676 93.961 9.337 96.325 9.337 C 97.769 9.337 98.962 9.693 99.883 10.237 L 99.883 12.748 L 98.816 12.748 C 98.502 11.22 97.665 10.425 96.242 10.425 C 95.153 10.425 94.526 11.074 94.526 11.932 C 94.526 12.957 95.216 13.501 96.932 13.962 C 99.088 14.548 100.573 15.28 100.573 17.477 C 100.573 19.549 99.025 20.972 96.43 20.972 Z M 106.196 9.337 L 106.196 18.628 C 106.196 19.591 106.761 19.696 107.703 19.821 L 107.703 20.763 L 102.158 20.763 L 102.158 19.821 C 103.078 19.696 103.664 19.591 103.664 18.628 L 103.664 11.765 L 102.262 10.886 L 102.262 10.383 L 105.61 9.337 Z M 104.857 8.082 C 103.915 8.082 103.246 7.37 103.246 6.512 C 103.246 5.654 103.915 4.943 104.857 4.943 C 105.778 4.943 106.448 5.654 106.448 6.512 C 106.448 7.37 105.778 8.082 104.857 8.082 Z M 113.331 19.235 C 114.148 19.235 114.713 19.005 115.424 18.503 L 115.424 14.841 L 112.976 15.782 C 112.201 16.075 111.762 16.64 111.762 17.436 C 111.762 18.587 112.327 19.235 113.331 19.235 Z M 117.956 13.167 C 117.956 13.669 117.893 17.373 117.893 18.022 C 117.893 18.859 118.166 19.34 118.751 19.34 C 118.94 19.34 119.4 19.298 119.714 19.214 L 119.84 19.884 C 119.128 20.596 118.333 20.972 117.454 20.972 C 116.345 20.972 115.738 20.198 115.487 19.068 C 114.754 19.947 113.624 20.951 112.034 20.951 C 110.172 20.951 109.209 19.696 109.209 18.084 C 109.209 16.159 110.695 15.489 112.097 15.008 L 115.424 13.815 L 115.424 12.706 C 115.424 11.346 115.006 10.425 113.624 10.425 C 112.599 10.425 112.097 10.928 112.097 11.89 C 112.097 12.288 112.139 12.643 112.243 13.083 L 110.402 13.355 C 110.004 13.083 109.816 12.685 109.816 12.12 C 109.816 10.3 111.595 9.337 114.001 9.337 C 116.575 9.337 117.956 10.488 117.956 13.167 Z" fill="currentColor"/>
</svg> 