<svg width="180" height="80" viewBox="0 0 180 80" fill="none" xmlns="http://www.w3.org/2000/svg">
<path fill-rule="evenodd" clip-rule="evenodd" d="M37.6836 28H41.7114V48.1753H52.2953V51.6259H37.6836V28ZM55.0412 38.7557H58.9439V51.625H55.0412V38.7557ZM70.4331 51.1587L65.469 34.8693H61.5662L66.7804 51.6254H74.0858L79.2999 34.8693H75.3657L70.4331 51.1587ZM80.7074 43.2334C80.7074 38.1045 83.923 34.498 88.9815 34.498C93.9419 34.498 97.189 37.9173 97.188 43.1421C97.1857 43.5584 97.1548 43.974 97.0954 44.386H84.6694C84.9815 47.6181 86.6356 49.266 89.0084 49.266C91.1625 49.266 92.2563 48.3005 92.849 46.684H96.8176C95.7562 50.2591 92.9148 52 88.9815 52C83.8294 52 80.7074 48.3318 80.7074 43.2334ZM88.9815 37.234C86.6986 37.234 85.1066 38.6642 84.7 41.6787H93.1963C93.0084 39.0054 91.3849 37.234 88.9815 37.234ZM120.01 28H114.952L105.149 38.8184V28H101.121V51.6259H105.149V39.6889L115.952 51.6259H121.103L109.801 39.1909L120.01 28ZM122.849 34.8693H126.752V47.7386H122.849V34.8693ZM55.0416 34.8693H51.1389V38.7552H55.0416V34.8693ZM126.753 47.7396H130.655V51.6255H126.753V47.7396ZM138.414 47.74H134.51V38.7557H130.608V34.8699H134.51V28H138.414V34.8699H142.316V38.7557H138.414V47.7396H142.316V51.6255H138.414V47.74Z" fill="black"/>
</svg>
