<svg width="120" height="40" viewBox="0 0 120 40" fill="none" xmlns="http://www.w3.org/2000/svg">
  <path d="M 34.564 14.422 C 34.564 19.327 37.725 22.747 42.105 22.747 C 46.485 22.747 49.645 19.327 49.645 14.422 C 49.645 9.517 46.485 6.097 42.105 6.097 C 37.725 6.097 34.564 9.517 34.564 14.422 Z M 46.755 14.422 C 46.755 17.932 44.836 20.205 42.105 20.205 C 39.373 20.205 37.454 17.932 37.454 14.422 C 37.454 10.912 39.373 8.64 42.105 8.64 C 44.836 8.64 46.755 10.912 46.755 14.422 Z M 57.783 22.748 C 61.102 22.748 62.998 19.958 62.998 16.605 C 62.998 13.253 61.102 10.463 57.783 10.463 C 56.248 10.463 55.119 11.07 54.374 11.948 L 54.374 10.688 L 51.665 10.688 L 51.665 26.55 L 54.374 26.55 L 54.374 21.263 C 55.119 22.14 56.248 22.748 57.783 22.748 Z M 54.306 16.267 C 54.306 14.04 55.571 12.825 57.241 12.825 C 59.205 12.825 60.266 14.355 60.266 16.605 C 60.266 18.855 59.205 20.385 57.241 20.385 C 55.571 20.385 54.306 19.147 54.306 16.965 Z M 70.33 22.748 C 72.7 22.748 74.574 21.51 75.409 19.44 L 73.084 18.563 C 72.723 19.778 71.662 20.453 70.33 20.453 C 68.591 20.453 67.372 19.215 67.169 17.19 L 75.477 17.19 L 75.477 16.29 C 75.477 13.05 73.649 10.463 70.217 10.463 C 66.785 10.463 64.573 13.14 64.573 16.605 C 64.573 20.25 66.943 22.748 70.33 22.748 Z M 70.194 12.735 C 71.91 12.735 72.723 13.86 72.745 15.165 L 67.305 15.165 C 67.711 13.567 68.795 12.735 70.194 12.735 Z M 77.51 22.5 L 80.219 22.5 L 80.219 15.57 C 80.219 13.883 81.461 12.983 82.68 12.983 C 84.17 12.983 84.757 14.04 84.757 15.503 L 84.757 22.5 L 87.466 22.5 L 87.466 14.715 C 87.466 12.173 85.976 10.463 83.493 10.463 C 81.958 10.463 80.896 11.16 80.219 11.948 L 80.219 10.688 L 77.51 10.688 Z M 95.401 6.345 L 89.26 22.5 L 92.127 22.5 L 93.504 18.81 L 100.503 18.81 L 101.903 22.5 L 104.815 22.5 L 98.674 6.345 Z M 96.981 9.54 L 99.555 16.29 L 94.453 16.29 Z M 109.466 6.392 L 106.576 6.392 L 106.576 22.547 L 109.466 22.547 Z M 27.944 12.278 C 28.627 10.235 28.392 7.998 27.299 6.14 C 25.657 3.29 22.355 1.823 19.131 2.513 C 17.696 0.903 15.635 -0.013 13.474 0 C 10.178 -0.007 7.254 2.108 6.24 5.233 C 4.122 5.665 2.294 6.986 1.225 8.858 C -0.43 11.701 -0.053 15.284 2.158 17.722 C 1.475 19.765 1.71 22.002 2.802 23.86 C 4.445 26.71 7.746 28.177 10.971 27.487 C 12.405 29.097 14.467 30.013 16.627 29.999 C 19.925 30.008 22.851 27.891 23.865 24.762 C 25.983 24.33 27.81 23.009 28.88 21.137 C 30.533 18.294 30.154 14.714 27.945 12.277 Z M 16.629 28.039 C 15.31 28.041 14.031 27.58 13.018 26.738 C 13.064 26.713 13.144 26.669 13.196 26.637 L 19.19 23.187 C 19.496 23.014 19.685 22.688 19.683 22.337 L 19.683 13.915 L 22.216 15.373 C 22.243 15.386 22.261 15.413 22.265 15.443 L 22.265 22.417 C 22.261 25.518 19.741 28.032 16.629 28.039 Z M 4.51 22.88 C 3.848 21.742 3.61 20.408 3.837 19.113 C 3.881 19.139 3.959 19.187 4.015 19.219 L 10.009 22.669 C 10.313 22.846 10.689 22.846 10.994 22.669 L 18.311 18.457 L 18.311 21.373 C 18.313 21.403 18.299 21.432 18.275 21.451 L 12.217 24.937 C 9.518 26.486 6.071 25.566 4.511 22.88 Z M 2.932 9.84 C 3.591 8.7 4.63 7.828 5.868 7.375 C 5.868 7.427 5.865 7.518 5.865 7.582 L 5.865 14.483 C 5.863 14.833 6.051 15.158 6.357 15.332 L 13.675 19.542 L 11.141 21 C 11.116 21.017 11.084 21.02 11.056 21.008 L 4.996 17.518 C 2.303 15.964 1.379 12.53 2.931 9.841 Z M 23.746 14.667 L 16.428 10.456 L 18.961 8.999 C 18.987 8.982 19.019 8.979 19.047 8.992 L 25.107 12.478 C 27.805 14.032 28.729 17.471 27.171 20.16 C 26.511 21.298 25.473 22.17 24.236 22.624 L 24.236 15.517 C 24.238 15.166 24.051 14.842 23.746 14.667 Z M 26.267 10.885 C 26.222 10.858 26.144 10.811 26.089 10.779 L 20.095 7.329 C 19.791 7.152 19.414 7.152 19.11 7.329 L 11.792 11.541 L 11.792 8.625 C 11.79 8.595 11.805 8.566 11.828 8.547 L 17.887 5.063 C 20.586 3.512 24.036 4.435 25.592 7.126 C 26.25 8.262 26.488 9.592 26.265 10.885 Z M 10.415 16.082 L 7.881 14.624 C 7.854 14.611 7.835 14.585 7.832 14.555 L 7.832 7.581 C 7.834 4.476 10.362 1.959 13.477 1.961 C 14.795 1.961 16.071 2.422 17.084 3.262 C 17.038 3.287 16.959 3.331 16.906 3.363 L 10.912 6.813 C 10.605 6.986 10.417 7.311 10.419 7.662 L 10.415 16.08 Z M 11.791 13.125 L 15.051 11.249 L 18.31 13.124 L 18.31 16.875 L 15.051 18.75 L 11.791 16.875 Z" fill="currentColor"/>
</svg> 