<svg width="120" height="40" viewBox="0 0 120 40" fill="none" xmlns="http://www.w3.org/2000/svg">
  <path d="M 14.4 11.3 C 14.4 13 13 14.4 11.3 14.4 C 9.6 14.4 8.2 13 8.2 11.3 C 8.2 9.6 9.6 8.2 11.3 8.2 C 13 8.2 14.4 9.6 14.4 11.3 Z M 11.3 15.6 C 9.6 15.6 8.2 17 8.2 18.7 C 8.2 20.4 9.6 21.8 11.3 21.8 C 13 21.8 14.4 20.4 14.4 18.7 C 14.4 17 13 15.6 11.3 15.6 Z M 30 15 C 30 23.3 23.3 30 15 30 C 6.7 30 0 23.3 0 15 C 0 6.7 6.7 0 15 0 C 23.3 0 30 6.7 30 15 Z M 26 15 C 26 8.9 21.1 4 15 4 C 8.9 4 4 8.9 4 15 C 4 21.1 8.9 26 15 26 C 21.1 26 26 21.1 26 15 Z M 18.7 15.6 C 17 15.6 15.6 17 15.6 18.7 C 15.6 20.4 17 21.8 18.7 21.8 C 20.4 21.8 21.8 20.4 21.8 18.7 C 21.8 17 20.4 15.6 18.7 15.6 Z M 18.7 8.2 C 17 8.2 15.6 9.6 15.6 11.3 C 15.6 13 17 14.4 18.7 14.4 C 20.4 14.4 21.8 13 21.8 11.3 C 21.8 9.6 20.4 8.2 18.7 8.2 Z M 70.3 5.9 C 70.4 5.9 70.5 6 70.6 6.1 L 70.6 9.3 C 70.6 9.5 70.4 9.6 70.3 9.6 L 65 9.6 C 64.8 9.6 64.7 9.4 64.7 9.3 L 64.7 6.2 C 64.7 6 64.9 5.9 65 5.9 Z M 70.2 10.4 L 60 10.4 C 59.9 10.4 59.7 10.5 59.7 10.7 L 58.4 15.7 L 58.3 16 L 56.7 10.7 C 56.7 10.6 56.5 10.4 56.4 10.4 L 52.4 10.4 C 52.3 10.4 52.1 10.5 52.1 10.7 L 50.6 15.7 L 50.5 16 L 50.4 15.7 L 49.8 13.2 L 49.2 10.7 C 49.2 10.6 49 10.4 48.9 10.4 L 40.9 10.4 L 40.9 6.1 C 40.9 6 40.7 5.8 40.5 5.9 L 35.5 7.5 C 35.3 7.5 35.2 7.6 35.2 7.8 L 35.2 10.5 L 33.9 10.5 C 33.8 10.5 33.6 10.6 33.6 10.8 L 33.6 14.6 C 33.6 14.7 33.7 14.9 33.9 14.9 L 35.2 14.9 L 35.2 19.6 C 35.2 22.9 37 24.4 40.3 24.4 C 41.7 24.4 43 24.1 43.9 23.6 L 43.9 19.6 C 43.9 19.4 43.7 19.3 43.6 19.4 C 43.1 19.6 42.6 19.7 42.2 19.7 C 41.3 19.7 40.8 19.3 40.8 18.3 L 40.8 14.9 L 43.7 14.9 C 43.8 14.9 44 14.8 44 14.6 L 44 11.4 L 47.8 24 C 47.8 24.1 48 24.3 48.1 24.3 L 52.3 24.3 C 52.4 24.3 52.6 24.2 52.6 24 L 54.4 18.4 L 55.3 21.3 L 56.1 24 C 56.1 24.1 56.3 24.3 56.4 24.3 L 60.6 24.3 C 60.7 24.3 60.9 24.2 60.9 24 L 64.7 11.4 L 64.7 24 C 64.7 24.1 64.8 24.3 65 24.3 L 70.1 24.3 C 70.2 24.3 70.4 24.2 70.4 24 L 70.4 10.7 C 70.4 10.6 70.3 10.4 70.2 10.4 Z M 76.9 5.9 L 71.8 5.9 C 71.7 5.9 71.5 6 71.5 6.2 L 71.5 23.9 C 71.5 24 71.6 24.2 71.8 24.2 L 76.9 24.2 C 77 24.2 77.2 24.1 77.2 23.9 L 77.2 6.1 C 77.2 6 77.1 5.9 76.9 5.9 Z M 83.7 5.9 L 78.4 5.9 C 78.3 5.9 78.1 6 78.1 6.2 L 78.1 9.3 C 78.1 9.4 78.2 9.6 78.4 9.6 L 83.7 9.6 C 83.8 9.6 84 9.5 84 9.3 L 84 6.1 C 84 6 83.9 5.9 83.7 5.9 Z M 83.6 10.4 L 78.5 10.4 C 78.4 10.4 78.2 10.5 78.2 10.7 L 78.2 23.8 C 78.2 23.9 78.3 24.1 78.5 24.1 L 83.6 24.1 C 83.7 24.1 83.9 24 83.9 23.8 L 83.9 10.7 C 83.9 10.6 83.8 10.4 83.6 10.4 Z M 99.7 17.2 C 99.7 21 96.5 24.3 92 24.3 C 87.6 24.3 84.4 21 84.4 17.2 C 84.4 13.4 87.6 10.1 92.1 10.1 C 96.5 10.1 99.7 13.4 99.7 17.2 Z M 94.3 17.3 C 94.3 15.9 93.3 14.8 92.1 14.9 C 90.8 14.9 89.9 16 89.9 17.3 C 89.9 18.6 90.9 19.7 92.1 19.7 C 93.4 19.7 94.3 18.6 94.3 17.3 Z" fill="currentColor"/>
</svg> 