<svg width="120" height="40" viewBox="0 0 120 40" fill="none" xmlns="http://www.w3.org/2000/svg">
  <path d="M 47.402 1.425 C 48.15 2.076 48.594 2.856 49.019 3.738 C 49.156 4.019 49.297 4.298 49.437 4.577 C 49.794 5.287 50.142 6 50.483 6.718 C 50.82 7.429 51.166 8.137 51.51 8.845 C 51.922 9.687 52.33 10.53 52.736 11.375 C 53.121 12.174 53.507 12.973 53.896 13.771 C 54.435 14.88 54.972 15.989 55.509 17.099 C 55.697 17.489 55.886 17.879 56.075 18.27 C 56.193 18.515 56.312 18.761 56.431 19.006 C 56.645 19.451 56.86 19.895 57.078 20.338 C 57.176 20.537 57.273 20.737 57.37 20.936 C 57.416 21.03 57.462 21.123 57.508 21.216 C 58.329 22.876 58.609 24.448 58.062 26.242 C 57.552 27.711 56.521 28.815 55.153 29.523 L 55.019 29.594 C 54.332 29.934 53.622 30.032 52.864 30.028 L 52.613 30.029 C 52.387 30.03 52.16 30.03 51.933 30.03 C 51.688 30.03 51.442 30.031 51.197 30.032 C 50.717 30.033 50.237 30.034 49.757 30.033 C 49.254 30.033 48.75 30.034 48.247 30.035 L 48.076 30.035 C 47.016 30.036 45.955 30.036 44.894 30.036 C 43.926 30.035 42.958 30.037 41.99 30.039 C 40.994 30.041 39.997 30.043 39.001 30.042 C 38.442 30.042 37.884 30.043 37.325 30.044 C 36.85 30.046 36.374 30.046 35.899 30.045 C 35.657 30.044 35.415 30.044 35.172 30.045 C 33.262 30.055 31.818 29.694 30.394 28.348 C 29.298 27.175 28.786 25.631 28.833 24.042 C 28.896 22.818 29.437 21.744 29.981 20.672 C 30.134 20.37 30.286 20.068 30.437 19.766 L 30.527 19.587 C 30.745 19.153 30.957 18.717 31.163 18.278 C 31.535 17.487 31.928 16.706 32.319 15.924 C 32.682 15.199 33.041 14.471 33.387 13.737 C 33.717 13.039 34.065 12.35 34.411 11.659 C 34.732 11.018 35.05 10.376 35.356 9.727 C 35.716 8.964 36.093 8.21 36.471 7.456 C 36.8 6.799 37.126 6.142 37.439 5.478 C 37.717 4.892 37.998 4.306 38.283 3.723 L 38.393 3.494 C 39.124 2.013 40.243 0.902 41.8 0.344 C 43.758 -0.313 45.81 0.151 47.402 1.425 Z M 9.218 1.209 C 10.586 2.273 11.197 3.821 11.918 5.35 C 12.223 5.995 12.537 6.636 12.85 7.277 C 13.326 8.253 13.799 9.229 14.269 10.207 L 14.38 10.44 L 14.476 10.639 C 14.577 10.847 14.679 11.053 14.782 11.259 C 15.235 10.41 15.67 9.551 16.089 8.685 C 16.242 8.367 16.396 8.049 16.55 7.731 L 16.643 7.539 C 16.955 6.898 17.273 6.26 17.593 5.623 C 17.862 5.087 18.125 4.549 18.379 4.006 C 19.162 2.329 20.198 1.046 21.96 0.356 C 23.441 -0.144 25.027 -0.033 26.437 0.641 C 27.843 1.409 28.919 2.605 29.379 4.161 C 29.886 6.094 29.311 7.748 28.436 9.47 C 28.283 9.772 28.132 10.074 27.98 10.377 L 27.89 10.556 C 27.672 10.989 27.46 11.425 27.254 11.865 C 26.882 12.656 26.49 13.436 26.098 14.218 C 25.735 14.944 25.377 15.671 25.031 16.405 C 24.7 17.103 24.353 17.793 24.007 18.483 C 23.686 19.125 23.367 19.767 23.061 20.416 C 22.702 21.179 22.324 21.933 21.946 22.687 C 21.618 23.343 21.292 24.001 20.978 24.664 C 20.701 25.251 20.419 25.836 20.134 26.419 L 20.024 26.648 C 19.251 28.215 18.089 29.28 16.452 29.851 C 15.286 30.216 13.617 30.165 12.508 29.644 L 12.26 29.529 C 11.747 29.271 11.302 28.956 10.873 28.575 C 10.828 28.535 10.783 28.494 10.736 28.453 C 10.124 27.873 9.759 27.154 9.398 26.404 C 9.261 26.123 9.12 25.845 8.98 25.566 C 8.624 24.856 8.275 24.142 7.935 23.425 C 7.597 22.713 7.252 22.005 6.907 21.298 C 6.496 20.455 6.087 19.612 5.681 18.768 C 5.296 17.968 4.91 17.17 4.522 16.372 C 3.983 15.263 3.445 14.154 2.909 13.043 C 2.72 12.653 2.531 12.263 2.343 11.873 C 2.224 11.627 2.105 11.382 1.987 11.136 C 1.772 10.692 1.557 10.248 1.34 9.805 C 1.242 9.605 1.144 9.406 1.047 9.206 C 1.001 9.113 0.955 9.019 0.909 8.926 C 0.095 7.278 -0.213 5.672 0.363 3.891 C 0.885 2.443 1.881 1.29 3.263 0.615 C 5.239 -0.299 7.455 -0.07 9.218 1.209 Z" fill="currentColor"/>
  <path d="M 71.204 0.035 C 71.452 0.036 71.699 0.036 71.947 0.036 C 72.364 0.035 72.781 0.036 73.198 0.038 C 73.62 0.04 74.042 0.04 74.465 0.039 C 83.108 0.025 83.108 0.025 86.102 2.881 L 86.276 3.064 L 86.414 3.204 C 88.147 5.027 88.76 7.472 88.712 9.925 C 88.63 12.373 87.537 14.569 85.778 16.247 L 85.639 16.386 C 83.875 18.072 81.725 18.479 79.382 18.67 L 79.214 18.688 C 78.484 18.762 77.753 18.749 77.019 18.746 C 76.551 18.745 76.084 18.743 75.616 18.741 L 75.617 18.973 C 75.621 19.696 75.625 20.419 75.627 21.142 C 75.628 21.514 75.629 21.886 75.632 22.258 C 75.634 22.617 75.635 22.977 75.636 23.336 C 75.636 23.472 75.637 23.609 75.638 23.745 C 75.653 25.561 75.205 27.146 73.935 28.487 C 73.481 28.919 72.975 29.237 72.422 29.523 L 72.289 29.594 C 71.541 29.965 70.777 30.04 69.952 30.036 L 69.668 30.035 C 68.13 30.007 66.901 29.402 65.786 28.348 C 64.352 26.814 64.212 25.068 64.217 23.081 C 64.217 22.887 64.217 22.693 64.216 22.498 C 64.215 22.027 64.215 21.556 64.216 21.085 C 64.217 20.702 64.217 20.319 64.216 19.936 L 64.216 19.77 L 64.216 19.436 C 64.215 18.395 64.216 17.355 64.217 16.314 C 64.218 15.423 64.218 14.532 64.217 13.641 C 64.216 12.438 64.215 11.235 64.216 10.032 C 64.217 9.65 64.216 9.268 64.216 8.885 C 64.215 8.419 64.215 7.953 64.217 7.486 C 64.217 7.249 64.217 7.011 64.217 6.774 C 64.212 4.807 64.533 3.126 65.925 1.656 C 66.371 1.232 66.871 0.911 67.412 0.624 L 67.534 0.555 C 68.668 -0.019 69.97 0.029 71.204 0.035 Z M 103.533 1.439 C 104.137 1.957 104.555 2.57 104.918 3.273 L 104.988 3.407 C 105.33 4.102 105.425 4.818 105.421 5.585 L 105.422 5.841 C 105.423 6.073 105.423 6.306 105.423 6.538 C 105.423 6.789 105.424 7.04 105.425 7.292 C 105.426 7.783 105.426 8.275 105.426 8.767 C 105.426 9.282 105.427 9.798 105.427 10.313 L 105.428 10.487 C 105.429 11.574 105.429 12.66 105.428 13.746 C 105.428 14.738 105.429 15.729 105.432 16.72 C 105.434 17.741 105.435 18.761 105.435 19.781 C 105.435 20.353 105.435 20.925 105.437 21.497 C 105.438 21.984 105.439 22.471 105.437 22.958 C 105.437 23.206 105.437 23.454 105.438 23.702 C 105.447 25.632 105.098 27.087 103.745 28.526 C 102.431 29.762 100.974 30.059 99.242 30.027 C 97.785 29.976 96.483 29.255 95.492 28.196 C 94.193 26.635 94.061 25.023 94.066 23.081 C 94.065 22.887 94.065 22.692 94.064 22.498 C 94.064 22.027 94.064 21.556 94.064 21.085 C 94.065 20.702 94.065 20.319 94.065 19.936 L 94.065 19.77 L 94.064 19.436 C 94.064 18.395 94.064 17.355 94.066 16.314 C 94.067 15.423 94.066 14.532 94.065 13.641 C 94.064 12.438 94.064 11.235 94.065 10.032 C 94.065 9.65 94.065 9.268 94.064 8.885 C 94.064 8.419 94.064 7.953 94.065 7.486 C 94.065 7.249 94.066 7.011 94.065 6.774 C 94.06 4.807 94.382 3.126 95.774 1.656 C 97.982 -0.445 101.187 -0.389 103.533 1.439 Z" fill="currentColor"/>
</svg> 