<svg width="120" height="40" viewBox="0 0 120 40" fill="none" xmlns="http://www.w3.org/2000/svg">
  <path d="M20 8C12.268 8 6 14.268 6 22s6.268 14 14 14c7.732 0 14-6.268 14-14S27.732 8 20 8zM20 32c-5.523 0-10-4.477-10-10s4.477-10 10-10 10 4.477 10 10-4.477 10-10 10z" fill="currentColor"/>
  <path d="M45 16v12h4v-4h4c2.206 0 4-1.794 4-4s-1.794-4-4-4h-8zm4 4v-2h4c0.552 0 1 0.448 1 1s-0.448 1-1 1h-4z" fill="currentColor"/>
  <path d="M65 16v12h4v-4h4c2.206 0 4-1.794 4-4s-1.794-4-4-4h-8zm4 4v-2h4c0.552 0 1 0.448 1 1s-0.448 1-1 1h-4z" fill="currentColor"/>
  <path d="M85 16v12h4v-4h4c2.206 0 4-1.794 4-4s-1.794-4-4-4h-8zm4 4v-2h4c0.552 0 1 0.448 1 1s-0.448 1-1 1h-4z" fill="currentColor"/>
  <path d="M105 16v12h4v-4h4c2.206 0 4-1.794 4-4s-1.794-4-4-4h-8zm4 4v-2h4c0.552 0 1 0.448 1 1s-0.448 1-1 1h-4z" fill="currentColor"/>
</svg> 